<?xml version="1.0" standalone="no"?>
<!DOCTYPE svg PUBLIC "-//W3C//DTD SVG 20010904//EN"
 "http://www.w3.org/TR/2001/REC-SVG-20010904/DTD/svg10.dtd">
<svg version="1.0" xmlns="http://www.w3.org/2000/svg"
 width="260.000000pt" height="260.000000pt" viewBox="0 0 260.000000 260.000000"
 preserveAspectRatio="xMidYMid meet">
<metadata>
Created by potrace 1.14, written by Peter Selinger 2001-2017
</metadata>
<g transform="translate(0.000000,260.000000) scale(0.100000,-0.100000)"
fill="#000000" stroke="none">
<path d="M2250 2031 c0 -5 34 -8 75 -7 98 1 98 16 0 16 -41 0 -75 -4 -75 -9z"/>
<path d="M2133 2023 c20 -2 54 -2 75 0 20 2 3 4 -38 4 -41 0 -58 -2 -37 -4z"/>
<path d="M1162 2011 c-8 -5 18 -10 66 -13 44 -3 90 -11 102 -18 31 -16 98 -22
135 -12 26 7 14 12 -85 30 -120 23 -196 28 -218 13z"/>
<path d="M525 1973 c-11 -3 -24 -10 -30 -15 -7 -8 -4 -9 10 -4 130 47 295 -29
399 -183 26 -40 55 -90 63 -111 13 -32 21 -39 39 -38 26 3 34 18 9 18 -8 0
-15 7 -15 15 0 8 -6 15 -13 15 -8 0 -19 11 -25 26 -7 14 -29 51 -49 82 -20 31
-36 61 -35 65 1 5 -1 6 -6 3 -5 -3 -28 15 -52 39 -24 24 -66 54 -94 66 -50 22
-159 34 -201 22z"/>
<path d="M2223 1973 c9 -2 23 -2 30 0 6 3 -1 5 -18 5 -16 0 -22 -2 -12 -5z"/>
<path d="M1843 1963 c9 -2 23 -2 30 0 6 3 -1 5 -18 5 -16 0 -22 -2 -12 -5z"/>
<path d="M2045 1960 c83 -3 155 -8 160 -9 6 -2 17 -2 25 -1 47 7 -66 18 -190
17 l-145 -1 150 -6z"/>
<path d="M2462 1950 c-15 -24 -16 -44 -2 -35 6 3 10 2 10 -4 0 -5 -6 -11 -12
-14 -10 -3 -8 -10 5 -23 16 -18 17 -16 17 39 0 31 -1 57 -3 57 -1 0 -8 -9 -15
-20z"/>
<path d="M2270 1950 c-23 -7 -23 -10 -2 -14 4 0 21 -11 39 -24 39 -27 66 -70
88 -139 17 -52 18 -53 56 -53 39 0 39 0 39 39 0 22 -5 43 -11 47 -8 5 -9 -6
-4 -35 6 -34 4 -41 -9 -41 -25 0 -52 32 -81 99 -15 33 -34 66 -42 73 -8 7 -19
22 -24 35 -9 25 -11 25 -49 13z"/>
<path d="M441 1915 c-17 -20 -31 -41 -31 -48 0 -7 -4 -6 -10 3 -9 13 -10 13
-11 0 -1 -8 -1 -26 0 -40 2 -20 0 -22 -8 -10 -9 12 -11 10 -11 -10 0 -26 16
-50 33 -50 5 0 1 7 -8 16 -14 14 -14 19 -2 33 8 9 17 27 20 41 4 14 20 41 37
60 16 18 30 35 30 37 0 9 -11 0 -39 -32z"/>
<path d="M1039 1913 c-1 -5 0 -21 1 -37 1 -16 -4 -32 -10 -36 -9 -6 -8 -15 4
-36 15 -29 15 -28 16 44 0 39 -2 72 -5 72 -3 0 -5 -3 -6 -7z"/>
<path d="M1395 1863 c5 -30 16 -57 31 -73 24 -24 24 -24 24 -3 0 12 -5 25 -10
28 -6 4 -8 10 -5 15 3 5 1 20 -5 34 -11 30 -4 32 30 10 l25 -17 -20 20 c-11
11 -33 24 -48 27 l-28 7 6 -48z"/>
<path d="M1021 1874 c0 -11 3 -14 6 -6 3 7 2 16 -1 19 -3 4 -6 -2 -5 -13z"/>
<path d="M235 1839 c-4 -6 -5 -12 -2 -15 2 -3 7 2 10 11 7 17 1 20 -8 4z"/>
<path d="M1451 1832 c-1 -7 6 -20 14 -28 13 -14 15 -13 15 6 0 12 -4 19 -9 16
-5 -4 -12 0 -14 6 -4 10 -6 10 -6 0z"/>
<path d="M187 1803 c-4 -3 -7 -13 -7 -22 0 -13 2 -13 9 -3 9 16 20 15 40 -1
12 -10 12 -9 2 11 -11 22 -31 29 -44 15z"/>
<path d="M1501 1794 c0 -11 3 -14 6 -6 3 7 2 16 -1 19 -3 4 -6 -2 -5 -13z"/>
<path d="M200 1766 c0 -2 7 -9 15 -16 9 -7 15 -8 15 -2 0 5 -7 12 -15 16 -8 3
-15 4 -15 2z"/>
<path d="M1455 1740 c-3 -6 1 -7 9 -4 18 7 21 14 7 14 -6 0 -13 -4 -16 -10z"/>
<path d="M1031 1713 c1 -15 5 -41 9 -58 7 -26 8 -23 9 22 0 28 -3 55 -9 58 -6
4 -10 -5 -9 -22z"/>
<path d="M178 1705 c-2 -3 -3 -18 0 -34 3 -21 11 -30 29 -34 17 -3 21 -1 14 6
-16 16 -13 30 4 23 8 -3 15 -1 15 4 0 9 -14 14 -32 11 -5 0 -8 6 -8 14 0 15
-12 20 -22 10z"/>
<path d="M1420 1647 c0 -15 -4 -27 -10 -27 -6 0 -9 -87 -9 -242 1 -134 5 -220
8 -193 7 58 19 84 31 65 5 -7 15 1 29 25 20 35 20 36 2 30 -18 -5 -19 0 -20
95 0 55 -3 105 -6 110 -3 6 -2 10 4 10 12 0 12 33 -1 90 -13 55 -28 74 -28 37z"/>
<path d="M2212 1620 c-1 -19 -5 -46 -7 -60 l-6 -25 11 25 c6 13 9 40 7 60 l-4
35 -1 -35z"/>
<path d="M210 1600 c-8 -5 -12 -12 -9 -15 4 -3 12 1 19 10 14 17 11 19 -10 5z"/>
<path d="M247 1515 c33 -47 80 -88 92 -80 7 3 10 2 9 -3 -3 -12 120 -96 242
-166 47 -27 87 -52 90 -55 3 -4 29 -22 57 -40 57 -35 107 -87 118 -120 6 -21
25 -29 25 -12 0 50 -96 169 -149 186 -16 5 -21 12 -18 27 4 14 2 16 -6 10 -15
-12 -348 186 -402 238 -19 18 -35 28 -35 20 0 -9 -6 -8 -22 6 l-22 19 21 -30z"/>
<path d="M2272 1476 c3 -15 1 -26 -6 -26 -6 0 -5 -4 3 -9 12 -8 12 -12 2 -25
-13 -15 -7 -36 10 -36 12 0 9 109 -4 117 -6 4 -8 -4 -5 -21z"/>
<path d="M1462 1460 c0 -19 3 -48 7 -65 7 -29 7 -28 13 15 4 24 3 47 -1 50 -4
3 -11 12 -14 20 -3 8 -5 -1 -5 -20z"/>
<path d="M2186 1453 c-6 -14 -5 -15 5 -6 7 7 10 15 7 18 -3 3 -9 -2 -12 -12z"/>
<path d="M1502 1405 c0 -16 2 -22 5 -12 2 9 2 23 0 30 -3 6 -5 -1 -5 -18z"/>
<path d="M2187 1406 c-3 -8 1 -20 9 -26 12 -10 14 -8 14 14 0 28 -14 35 -23
12z"/>
<path d="M2012 1355 c4 -4 27 -10 50 -12 57 -6 114 -39 129 -75 6 -15 15 -28
20 -28 5 0 11 -11 15 -24 3 -14 12 -27 20 -30 10 -4 10 2 -3 29 -9 19 -21 35
-26 35 -5 0 -6 7 -3 16 3 8 2 12 -4 9 -11 -7 -32 29 -23 39 3 3 1 6 -6 6 -7 0
-11 6 -8 13 3 8 0 14 -6 14 -7 0 -46 4 -87 8 -41 4 -72 4 -68 0z"/>
<path d="M2277 1275 c-4 -8 -2 -17 3 -20 6 -4 10 3 10 14 0 25 -6 27 -13 6z"/>
<path d="M1030 1271 c-8 -6 -17 -8 -20 -6 -3 2 -11 -5 -18 -16 -10 -15 -10
-19 0 -17 7 2 12 -5 12 -14 -1 -10 4 -14 12 -11 9 3 14 -2 14 -17 0 -11 4 -19
10 -15 10 6 -8 55 -21 55 -5 0 -6 7 -2 16 3 9 13 14 24 11 12 -3 16 0 12 9 -6
16 -4 16 -23 5z"/>
<path d="M1060 1219 c-13 -8 -13 -11 3 -23 17 -13 17 -15 -5 -30 -21 -15 -21
-16 -3 -16 19 -1 19 -1 2 -11 -9 -6 -15 -16 -11 -22 3 -7 -3 -1 -14 12 -11 14
-18 31 -15 38 3 7 0 13 -6 13 -33 0 19 -82 67 -105 23 -11 42 -26 42 -34 0 -8
3 -12 6 -9 9 9 -16 129 -34 165 -13 25 -20 30 -32 22z"/>
<path d="M2211 1183 c-1 -37 7 -44 40 -36 l24 7 -25 6 c-14 3 -27 16 -31 30
-6 23 -7 22 -8 -7z"/>
<path d="M250 1064 c0 -6 7 -19 16 -30 14 -18 14 -18 3 6 -14 31 -19 36 -19
24z"/>
<path d="M170 1029 c0 -11 4 -18 10 -14 5 3 7 12 3 20 -7 21 -13 19 -13 -6z"/>
<path d="M870 1005 c0 -8 2 -15 4 -15 2 0 6 7 10 15 3 8 1 15 -4 15 -6 0 -10
-7 -10 -15z"/>
<path d="M170 935 c0 -14 4 -25 9 -25 4 0 6 11 3 25 -2 14 -6 25 -8 25 -2 0
-4 -11 -4 -25z"/>
<path d="M1075 936 c-3 -9 -7 -23 -10 -32 -3 -8 0 -12 5 -9 16 10 11 -34 -7
-63 -16 -25 -16 -26 -1 -14 19 15 62 121 53 130 -3 3 -5 0 -5 -8 0 -10 -3 -10
-15 0 -12 10 -16 9 -20 -4z"/>
<path d="M272 914 c-11 -12 -8 -18 15 -39 32 -28 52 -33 32 -9 -8 10 -18 27
-24 40 -9 19 -12 20 -23 8z"/>
<path d="M870 913 c0 -25 -34 -77 -72 -114 -22 -20 -26 -27 -12 -20 26 13 70
63 79 91 4 11 11 18 16 15 5 -3 6 2 2 11 -5 13 -3 15 8 9 12 -8 12 -6 0 8 -17
21 -21 21 -21 0z"/>
<path d="M365 891 c17 -18 44 -42 60 -54 35 -24 27 -15 -40 44 -37 32 -42 35
-20 10z"/>
<path d="M325 891 c-3 -6 5 -15 17 -21 21 -10 21 -10 6 3 -10 8 -15 17 -11 20
3 4 4 7 0 7 -3 0 -8 -4 -12 -9z"/>
<path d="M1414 852 c-26 -22 -42 -74 -19 -66 8 4 15 10 15 14 0 5 9 12 20 15
11 3 20 10 20 15 0 5 -7 7 -15 4 -19 -8 -19 0 1 20 21 22 4 20 -22 -2z"/>
<path d="M1610 852 c0 -7 8 -9 18 -5 9 3 14 3 10 -2 -10 -10 11 -37 23 -29 5
2 11 -7 15 -21 10 -40 26 -30 18 13 -8 46 -4 42 -48 49 -23 4 -36 2 -36 -5z"/>
<path d="M170 730 c0 -72 3 -90 15 -90 21 0 36 34 29 69 -4 21 -3 31 5 31 8 0
4 11 -8 26 -12 15 -21 33 -21 40 0 8 -4 14 -10 14 -6 0 -10 -37 -10 -90z"/>
<path d="M1025 780 c-10 -11 -16 -22 -14 -24 2 -2 12 7 22 20 22 29 17 32 -8
4z"/>
<path d="M1640 786 c0 -2 7 -7 16 -10 8 -3 12 -2 9 4 -6 10 -25 14 -25 6z"/>
<path d="M274 734 c-18 -23 -30 -31 -34 -23 -4 6 -9 -4 -12 -24 -2 -20 0 -33
4 -31 4 3 8 12 8 19 0 8 12 22 28 32 15 10 35 25 45 34 16 14 16 17 3 22 -10
4 -25 -6 -42 -29z"/>
<path d="M345 759 c4 -5 14 -10 23 -10 9 -1 4 -4 -12 -8 -24 -5 -4 -13 115
-47 135 -39 151 -42 259 -40 100 2 122 5 170 28 30 14 66 35 80 47 l25 23 -32
-21 c-40 -27 -47 -26 -32 2 11 20 11 21 -5 8 -9 -8 -15 -20 -12 -27 10 -26
-73 -46 -194 -47 -64 0 -120 2 -125 5 -6 3 -41 16 -80 28 -38 13 -83 29 -99
38 -41 20 -88 33 -81 21z"/>
<path d="M1364 758 c-7 -11 18 -10 36 2 11 7 10 9 -8 7 -13 -1 -26 -5 -28 -9z"/>
<path d="M1727 749 c12 -12 24 -21 27 -18 2 2 -8 13 -22 23 l-27 19 22 -24z"/>
<path d="M1298 723 c7 -3 16 -2 19 1 4 3 -2 6 -13 5 -11 0 -14 -3 -6 -6z"/>
<path d="M1188 713 c17 -2 47 -2 65 0 17 2 3 4 -33 4 -36 0 -50 -2 -32 -4z"/>
<path d="M1858 713 c17 -2 47 -2 65 0 17 2 3 4 -33 4 -36 0 -50 -2 -32 -4z"/>
<path d="M1878 663 c6 -2 18 -2 25 0 6 3 1 5 -13 5 -14 0 -19 -2 -12 -5z"/>
<path d="M1150 650 c0 -6 73 -10 203 -9 135 1 189 4 162 10 -59 12 -365 11
-365 -1z"/>
<path d="M1570 654 c38 -8 90 -9 90 -2 0 4 -24 7 -52 7 -29 -1 -46 -3 -38 -5z"/>
</g>
</svg>
