<?xml version="1.0" standalone="no"?>
<!DOCTYPE svg PUBLIC "-//W3C//DTD SVG 20010904//EN"
 "http://www.w3.org/TR/2001/REC-SVG-20010904/DTD/svg10.dtd">
<svg version="1.0" xmlns="http://www.w3.org/2000/svg"
 width="128.000000pt" height="128.000000pt" viewBox="0 0 128.000000 128.000000"
 preserveAspectRatio="xMidYMid meet">

<g transform="translate(0.000000,128.000000) scale(0.100000,-0.100000)" stroke="none">
<path d="M80 951 c0 -14 10 -20 42 -24 24 -3 51 -15 65 -29 13 -13 76 -149
142 -303 95 -224 122 -280 137 -280 14 0 38 35 89 127 38 70 73 124 77 120 3
-4 30 -62 58 -129 37 -87 57 -123 68 -123 12 0 67 91 176 291 88 160 171 299
184 310 14 10 38 19 53 19 22 0 29 5 29 20 0 19 -7 20 -115 20 -96 0 -115 -3
-115 -15 0 -9 9 -15 24 -15 25 0 56 -23 56 -41 0 -10 -221 -424 -246 -462 -10
-15 -19 -1 -63 104 -28 67 -51 128 -51 135 0 25 100 198 131 227 18 17 40 27
59 27 23 0 30 4 30 20 0 19 -7 20 -115 20 -96 0 -115 -3 -115 -15 0 -9 9 -15
24 -15 14 0 31 -9 40 -21 14 -20 12 -27 -19 -88 -59 -116 -57 -116 -94 -23
-38 93 -37 116 2 120 19 2 27 9 27 23 0 18 -8 19 -141 19 -127 0 -140 -2 -137
-17 2 -10 16 -20 35 -24 62 -12 77 -31 137 -174 l57 -136 -53 -99 c-29 -55
-56 -96 -59 -92 -19 20 -198 473 -193 486 4 10 18 16 35 16 22 0 29 5 29 20 0
19 -7 20 -145 20 -135 0 -145 -1 -145 -19z"/>
</g>
</svg>
