<?xml version="1.0" standalone="no"?>
<!DOCTYPE svg PUBLIC "-//W3C//DTD SVG 20010904//EN"
 "http://www.w3.org/TR/2001/REC-SVG-20010904/DTD/svg10.dtd">
<svg version="1.0" xmlns="http://www.w3.org/2000/svg"
 width="128.000000pt" height="128.000000pt" viewBox="0 0 128.000000 128.000000"
 preserveAspectRatio="xMidYMid meet">

<g transform="translate(0.000000,128.000000) scale(0.100000,-0.100000)" stroke="none">
<path d="M520 1265 c-232 -52 -431 -247 -484 -475 -20 -83 -20 -217 0 -300 41
-175 172 -340 334 -419 139 -68 273 -86 414 -56 273 58 476 316 476 607 l0 78
-270 0 -270 0 0 -80 0 -80 189 0 189 0 -14 -47 c-8 -26 -24 -68 -36 -93 -31
-65 -135 -165 -203 -196 -307 -141 -665 94 -665 436 0 368 418 606 715 407 22
-15 52 -37 68 -49 l28 -22 56 57 57 56 -39 35 c-146 127 -361 183 -545 141z"/>
</g>
</svg>
